<svg xmlns="http://www.w3.org/2000/svg" fill="#f0f0f0" viewBox="-1 -2 280 27.5"><path d="M2.28,26.76c-.9-.27-1.42-.57-1.58-.89A14.1,14.1,0,0,0,.91,24.3c.07-.66.1-1.17.1-1.52a.82.82,0,0,1,.55-.17,6.12,6.12,0,0,0,.3,2.14,2,2,0,0,0,1,1.11,4.49,4.49,0,0,0,2,.35,6.92,6.92,0,0,0,3.76-.95,3,3,0,0,0,1.5-2.7,3.56,3.56,0,0,0-.53-1.81A10.1,10.1,0,0,0,7.68,18.6L7,18A12.79,12.79,0,0,1,5.2,16.05a3.34,3.34,0,0,1-.59-2,3.83,3.83,0,0,1,.59-2.1,4,4,0,0,1,1.68-1.49,5.54,5.54,0,0,1,2.5-.54,5.4,5.4,0,0,1,2.38.48A2.48,2.48,0,0,1,13,11.52a7.75,7.75,0,0,1-.21,1.66c-.15.62-.24,1-.27,1.1a2,2,0,0,1-.6-.09l.07-.48a5.05,5.05,0,0,0,.05-.7,2,2,0,0,0-.59-1.6,2.86,2.86,0,0,0-1.83-.49,4.58,4.58,0,0,0-2.8.79,2.5,2.5,0,0,0-1,2.07,2.9,2.9,0,0,0,.62,1.79,16.93,16.93,0,0,0,1.92,1.95l.51.46A13.84,13.84,0,0,1,11,20.23a3.63,3.63,0,0,1,.56,2,3.94,3.94,0,0,1-1,2.74A5.91,5.91,0,0,1,8,26.63a8.86,8.86,0,0,1-3,.54A9.48,9.48,0,0,1,2.28,26.76Z" transform="translate(-0.7 -2.28)"/><path d="M28.75,22a3.8,3.8,0,0,1-1,2.33,8.58,8.58,0,0,1-2.35,2.05,5,5,0,0,1-2.53.83,1.78,1.78,0,0,1-1.44-.58,2.54,2.54,0,0,1-.6-1.48,5,5,0,0,1-1.52,1.41,3.19,3.19,0,0,1-1.63.55,2.15,2.15,0,0,1-1.23-.42,3.5,3.5,0,0,1-1-1,2.4,2.4,0,0,1-.41-1.16l1.18-4.85A3,3,0,0,1,17,18.37a4.89,4.89,0,0,1,1.43-1.09,3.66,3.66,0,0,1,1.7-.43,2.88,2.88,0,0,1,1.95.74,3.87,3.87,0,0,1,.32-.72.43.43,0,0,1,.32-.16l1.18-.12.07,0a2.2,2.2,0,0,0-.69,1.2q-.75,2.79-1,4.11A11.12,11.12,0,0,0,22,24.27a3.19,3.19,0,0,0,.26,1.47,1,1,0,0,0,.89.47A3.87,3.87,0,0,0,25,25.59a8.3,8.3,0,0,0,2-1.74,8.1,8.1,0,0,0,1.46-2.51C28.65,21.34,28.75,21.55,28.75,22Zm-9.95,3.7a3.88,3.88,0,0,0,1.11-.83,2.92,2.92,0,0,0,.71-1.24l.45-2c.07-.32.18-.84.34-1.55s.29-1.26.38-1.65a2.25,2.25,0,0,0-1.63-.67,2.32,2.32,0,0,0-1.34.4,3.49,3.49,0,0,0-1,1,3.27,3.27,0,0,0-.48,1l-1,4.28a1.77,1.77,0,0,0,.48,1.08,1.26,1.26,0,0,0,.94.48A2.38,2.38,0,0,0,18.8,25.66Z" transform="translate(-0.7 -2.28)"/><path d="M37.92,20.39a1,1,0,0,1,.14.56,2.07,2.07,0,0,1-.24.92,8.71,8.71,0,0,1-1.92,2.6,10.35,10.35,0,0,1-2.7,1.88,6.23,6.23,0,0,1-2.7.7c-1.69,0-2.54-1-2.54-2.95a31.08,31.08,0,0,1,1.13-6.64q1.13-4.58,3.26-12.13a7.54,7.54,0,0,1,1-2.3,1.52,1.52,0,0,1,1.23-.75,1.66,1.66,0,0,1,1,.35,2.49,2.49,0,0,1,.77,1.07,4.41,4.41,0,0,1,.32,1.77,15.19,15.19,0,0,1-.81,4.32,28.61,28.61,0,0,1-2.41,5.52,28.29,28.29,0,0,1-3.86,5.38,17.7,17.7,0,0,0-.41,3.14,2.37,2.37,0,0,0,.47,1.65,1.71,1.71,0,0,0,1.31.49,4.89,4.89,0,0,0,2.5-.79A9.37,9.37,0,0,0,35.88,23a9.72,9.72,0,0,0,1.66-2.88A.45.45,0,0,1,37.92,20.39Zm-8-1.52A26.75,26.75,0,0,0,33,14a30,30,0,0,0,1.92-4.94,14.7,14.7,0,0,0,.63-3.62,3.56,3.56,0,0,0-.21-1.29.75.75,0,0,0-.72-.54q-.28,0-.69.6A10.82,10.82,0,0,0,33,6.84Q31,14.09,29.93,18.87Z" transform="translate(-0.7 -2.28)"/><path d="M44.09,17.15a2.5,2.5,0,0,1,.67,1.91,3.75,3.75,0,0,1-.47,1.83,8.79,8.79,0,0,1-1.43,1.84c-.64.66-1.7,1.66-3.19,3-.27.24-.68.62-1.22,1.13h-1a2.29,2.29,0,0,0,.1-.55l0-6.26v-.84a2.51,2.51,0,0,0-.11-.93c-.07-.13-.25-.2-.54-.2l-1.66,0a.69.69,0,0,1,.17-.48,9.68,9.68,0,0,0,1.28-.2,6.16,6.16,0,0,0,.76-.25L38,16.9a1,1,0,0,1,.7.69,5.42,5.42,0,0,1,.14,1.35c0,1.44,0,2.85-.07,4.25,0,.24,0,1,0,2.42a36.5,36.5,0,0,0,3.72-4.32,4.76,4.76,0,0,0,1-2.5,3,3,0,0,0-1.66-2.59l.24-.12A5.41,5.41,0,0,1,44.09,17.15Z" transform="translate(-0.7 -2.28)"/><path d="M60.46,22a3.82,3.82,0,0,1-1,2.33,8.44,8.44,0,0,1-2.35,2.05,5,5,0,0,1-2.53.83,1.81,1.81,0,0,1-1.44-.58,2.54,2.54,0,0,1-.6-1.48,5,5,0,0,1-1.51,1.41,3.22,3.22,0,0,1-1.63.55,2.17,2.17,0,0,1-1.24-.42,3.5,3.5,0,0,1-1-1,2.38,2.38,0,0,1-.4-1.16L48,19.61a3.15,3.15,0,0,1,.73-1.24,5,5,0,0,1,1.43-1.09,3.67,3.67,0,0,1,1.71-.43,2.87,2.87,0,0,1,1.94.74,3.87,3.87,0,0,1,.32-.72.46.46,0,0,1,.33-.16l1.17-.12.08,0a2.15,2.15,0,0,0-.7,1.2q-.75,2.79-1,4.11a11.83,11.83,0,0,0-.28,2.33,3,3,0,0,0,.27,1.47.93.93,0,0,0,.89.47,3.84,3.84,0,0,0,1.83-.62,8.3,8.3,0,0,0,2-1.74,7.91,7.91,0,0,0,1.46-2.51C60.35,21.34,60.46,21.55,60.46,22Zm-10,3.7a3.84,3.84,0,0,0,1.1-.83,2.82,2.82,0,0,0,.71-1.24l.46-2c.06-.32.17-.84.33-1.55s.29-1.26.39-1.65a2.27,2.27,0,0,0-1.64-.67,2.34,2.34,0,0,0-1.34.4,3.33,3.33,0,0,0-1,1,2.86,2.86,0,0,0-.48,1l-1,4.28a1.77,1.77,0,0,0,.48,1.08,1.24,1.24,0,0,0,.93.48A2.42,2.42,0,0,0,50.51,25.66Z" transform="translate(-0.7 -2.28)"/><path d="M68.47,23.31a.7.7,0,0,1-.07.33,2.23,2.23,0,0,1-.24.36,8.08,8.08,0,0,1-1.74,1.48,11.72,11.72,0,0,1-2.34,1.19,6.36,6.36,0,0,1-2.14.45,2.42,2.42,0,0,1-1.71-.63,2.48,2.48,0,0,1-.69-1.91,29.81,29.81,0,0,1,1.16-6l-2.55.1L58,18.54a.29.29,0,0,1-.11-.11l.27-.48a2.24,2.24,0,0,1,.33-.5l2.47,0q.8-2.92,1.83-6a10.46,10.46,0,0,1,1.1-.73,2.74,2.74,0,0,1,.82-.4.43.43,0,0,1,.26.27,1.67,1.67,0,0,0-.67.44,3,3,0,0,0-.48.9,53.14,53.14,0,0,0-1.68,5.54l6.12,0,0,.38a.38.38,0,0,1-.07.27.62.62,0,0,1-.33.09q-.34,0-6,.24a32.08,32.08,0,0,0-1.11,6,1.64,1.64,0,0,0,.41,1.23,1.71,1.71,0,0,0,1.25.4q2.44,0,5.9-3.24A.69.69,0,0,1,68.47,23.31Z" transform="translate(-0.7 -2.28)"/><path d="M68.15,26.49a2.09,2.09,0,0,1-.66-1.67q.36-1.16,1.24-5.11c.29-1.3.47-2.08.53-2.33a1,1,0,0,1,.87-.53q.36,0,.36.24c-.12.4-.27,1-.47,1.91s-.36,1.55-.47,2.05c-.43,2-.73,3.26-.89,3.82a1.1,1.1,0,0,0,.33.85,1.19,1.19,0,0,0,.85.3,4.23,4.23,0,0,0,2.41-.85,10.9,10.9,0,0,0,2.14-2,15.24,15.24,0,0,0,1.38-2,.31.31,0,0,1,.19.16,1,1,0,0,1,.05.37,1.38,1.38,0,0,1-.24.74,12.91,12.91,0,0,1-2.91,3.29,5.24,5.24,0,0,1-3.21,1.25A2.27,2.27,0,0,1,68.15,26.49Zm2.07-12.87A.87.87,0,0,1,70,13a1.35,1.35,0,0,1,.31-.87,1,1,0,0,1,.79-.4.67.67,0,0,1,.57.24.93.93,0,0,1,.18.58,1.31,1.31,0,0,1-.33.87,1,1,0,0,1-.8.4A.67.67,0,0,1,70.22,13.62Z" transform="translate(-0.7 -2.28)"/><path d="M87.72,18.89a2.09,2.09,0,0,1-.48,1.24,3.62,3.62,0,0,1-1.31,1,4.07,4.07,0,0,1-1.81.41,3.9,3.9,0,0,1-2.33-.72q-.15.69-.36,1.41c-.05.18-.15.58-.31,1.22a15.77,15.77,0,0,0-.34,1.69,2.56,2.56,0,0,1-.67.83,5.1,5.1,0,0,1-1.2.75,3.28,3.28,0,0,1-1.37.31,2.93,2.93,0,0,1-1.44-.38,3.41,3.41,0,0,1-1.14-1,2.52,2.52,0,0,1-.44-1.44c.22-.67.41-1.31.55-1.9s.28-1.19.41-1.8l.24-1.2a2.22,2.22,0,0,1,.65-1.09,4.25,4.25,0,0,1,1.28-.89A3.62,3.62,0,0,1,79.17,17a5.39,5.39,0,0,1,.82.1,1.6,1.6,0,0,1,.25-.77.74.74,0,0,1,.59-.21,2.36,2.36,0,0,1,.55.07,6.7,6.7,0,0,0-.12,1.15,3.44,3.44,0,0,0,.84,2.35,2.87,2.87,0,0,0,2.28,1,3.07,3.07,0,0,0,1.86-.57,4,4,0,0,0,1.24-1.66Q87.72,18.49,87.72,18.89Zm-7.44,3.7A18.56,18.56,0,0,0,80.9,20a3.8,3.8,0,0,1-.72-1.63.33.33,0,0,0,0-.15.27.27,0,0,0-.16-.09,2.31,2.31,0,0,0-.82-.14,2.49,2.49,0,0,0-1.53.48,2,2,0,0,0-.82,1.15c0,.19-.22.94-.53,2.26-.14.76-.32,1.52-.52,2.28a1.69,1.69,0,0,0,.6,1.38,2,2,0,0,0,1.27.49,2.39,2.39,0,0,0,1.23-.41,2.1,2.1,0,0,0,.86-.84A22.46,22.46,0,0,1,80.28,22.59Z" transform="translate(-0.7 -2.28)"/><path d="M97.76,21.23a1,1,0,0,1,.11.47A4.17,4.17,0,0,1,97,23.88a9.26,9.26,0,0,1-2.32,2.31,4.85,4.85,0,0,1-2.77,1,1.87,1.87,0,0,1-1.33-.43,1.73,1.73,0,0,1-.47-1.32,11.59,11.59,0,0,1,.67-3.33c.45-1.4.86-2.56,1.23-3.49-.07-.09-.13-.14-.2-.14a.4.4,0,0,0-.21.07,11.45,11.45,0,0,0-1.42,1.18q-1,.9-1.92,1.92A8.6,8.6,0,0,0,87,23.26c-.26.69-.42,1.12-.48,1.31a5.49,5.49,0,0,0-.19.9l-.22,1.08,0,.18a.18.18,0,0,1-.06.13l-.1,0a3.29,3.29,0,0,1-.57-.05c-.23,0-.35-.08-.35-.14a4.58,4.58,0,0,1,.17-.94c.11-.43.23-.82.34-1.17l.26-.82.22-.67c.46-1.6.78-2.76,1-3.49s.33-1.54.49-2.44c0-.16.13-.24.33-.24a1.46,1.46,0,0,1,.5.11.46.46,0,0,1,.32.3c-.06.29-.18.78-.35,1.46s-.37,1.45-.61,2.28a29.55,29.55,0,0,1,2.89-2.83c1-.85,1.67-1.27,2-1.27a1,1,0,0,1,.57.24,1,1,0,0,1,.41.46c-.51,1.37-1,2.87-1.46,4.5a15,15,0,0,0-.7,3.2q0,.84,1,.84a4.07,4.07,0,0,0,2.87-1.58A12.59,12.59,0,0,0,97.41,21,.36.36,0,0,1,97.76,21.23Z" transform="translate(-0.7 -2.28)"/><path d="M113.21,20.39a1.08,1.08,0,0,1,.14.56,2.07,2.07,0,0,1-.24.92,8.89,8.89,0,0,1-1.92,2.6,10.35,10.35,0,0,1-2.7,1.88,6.23,6.23,0,0,1-2.7.7c-1.7,0-2.54-1-2.54-2.95a31.55,31.55,0,0,1,1.12-6.64c.76-3.05,1.84-7.09,3.27-12.13a7.56,7.56,0,0,1,1-2.3,1.54,1.54,0,0,1,1.24-.75,1.61,1.61,0,0,1,1,.35,2.59,2.59,0,0,1,.78,1.07,4.42,4.42,0,0,1,.31,1.77,15.13,15.13,0,0,1-.8,4.32,29.24,29.24,0,0,1-2.41,5.52,27.9,27.9,0,0,1-3.87,5.38,18.44,18.44,0,0,0-.4,3.14,2.38,2.38,0,0,0,.46,1.65,1.73,1.73,0,0,0,1.31.49,4.92,4.92,0,0,0,2.51-.79A9.37,9.37,0,0,0,111.17,23a9.68,9.68,0,0,0,1.65-2.88A.46.46,0,0,1,113.21,20.39Zm-8-1.52A25.71,25.71,0,0,0,108.27,14a28.33,28.33,0,0,0,1.92-4.94,14.34,14.34,0,0,0,.64-3.62,3.35,3.35,0,0,0-.22-1.29.74.74,0,0,0-.72-.54c-.19,0-.42.2-.68.6a11.14,11.14,0,0,0-.95,2.64Q106.25,14.09,105.21,18.87Z" transform="translate(-0.7 -2.28)"/><path d="M112.64,26.49a2.09,2.09,0,0,1-.66-1.67q.36-1.16,1.25-5.11c.29-1.3.46-2.08.53-2.33a1,1,0,0,1,.86-.53q.36,0,.36.24c-.11.4-.27,1-.47,1.91s-.35,1.55-.46,2.05c-.44,2-.73,3.26-.89,3.82a1.13,1.13,0,0,0,.32.85,1.21,1.21,0,0,0,.85.3,4.26,4.26,0,0,0,2.42-.85,10.84,10.84,0,0,0,2.13-2,13.45,13.45,0,0,0,1.38-2,.28.28,0,0,1,.19.16.83.83,0,0,1,0,.37,1.38,1.38,0,0,1-.24.74,12.69,12.69,0,0,1-2.9,3.29,5.26,5.26,0,0,1-3.22,1.25A2.27,2.27,0,0,1,112.64,26.49Zm2.08-12.87a.87.87,0,0,1-.19-.59,1.35,1.35,0,0,1,.31-.87,1,1,0,0,1,.79-.4.65.65,0,0,1,.56.24.93.93,0,0,1,.18.58,1.3,1.3,0,0,1-.32.87,1,1,0,0,1-.8.4A.66.66,0,0,1,114.72,13.62Z" transform="translate(-0.7 -2.28)"/><path d="M129.52,21.63a3.57,3.57,0,0,1-1.23,2.24,12.27,12.27,0,0,1-2.92,2.21,6.21,6.21,0,0,1-2.81.92,3.2,3.2,0,0,1-1.87-.56,4.48,4.48,0,0,1-1.21-1.26,2.41,2.41,0,0,1-.42-1c.26-.92.54-2.18.84-3.8l.27-1.34a1.89,1.89,0,0,1,.69-1,5.86,5.86,0,0,1,1.35-.86,3,3,0,0,1,1.19-.35,2.25,2.25,0,0,1,.88.23,2.46,2.46,0,0,1,.91.71,1.83,1.83,0,0,1,.4,1.22,2.62,2.62,0,0,1-.58,1.63,4,4,0,0,1-1.7,1.25,6.91,6.91,0,0,1-2.71.48l-.34,1.61a2.15,2.15,0,0,0,.25.72,2.5,2.5,0,0,0,.82.91,2.37,2.37,0,0,0,1.43.41,4.73,4.73,0,0,0,2.42-.76,10.4,10.4,0,0,0,2.33-1.88,9.51,9.51,0,0,0,1.58-2.18A.44.44,0,0,1,129.52,21.63ZM122.47,18a3.52,3.52,0,0,0-.83.6,1.35,1.35,0,0,0-.44.67c-.16.72-.31,1.45-.43,2.18a5.19,5.19,0,0,0,2.78-.73,1.86,1.86,0,0,0,.93-1.5,1.4,1.4,0,0,0-.43-1,1.2,1.2,0,0,0-.84-.43A1.69,1.69,0,0,0,122.47,18Z" transform="translate(-0.7 -2.28)"/><path d="M127.45,26.64a1.54,1.54,0,0,1-.8-1.27.9.9,0,0,1,.21-.62.88.88,0,0,1,.48-.29,2.59,2.59,0,0,0,.87,1.37,2.33,2.33,0,0,0,1.46.45,2.41,2.41,0,0,0,1.73-.61,1.91,1.91,0,0,0,.65-1.43,1.68,1.68,0,0,0-.35-1,6.85,6.85,0,0,0-1-1.06A9.22,9.22,0,0,1,129.51,21a2,2,0,0,1-.37-1.19,2.46,2.46,0,0,1,.47-1.42,3.47,3.47,0,0,1,1.2-1.08,3.13,3.13,0,0,1,1.52-.41,2.79,2.79,0,0,1,1.29.3.91.91,0,0,1,.59.81,1.49,1.49,0,0,1-.58,1,2.4,2.4,0,0,0-.77-.86,1.7,1.7,0,0,0-1-.3,1.32,1.32,0,0,0-1.16.57,1.89,1.89,0,0,0-.4,1.11,1.2,1.2,0,0,0,.31.82,8.85,8.85,0,0,0,1,.91,9.73,9.73,0,0,1,1.25,1.25,2.09,2.09,0,0,1,.43,1.3,2.85,2.85,0,0,1-.52,1.58,4.14,4.14,0,0,1-1.41,1.31,4,4,0,0,1-2,.51A3.35,3.35,0,0,1,127.45,26.64Z" transform="translate(-0.7 -2.28)"/><path d="M160.82,18.05a1.94,1.94,0,0,1-1.13,1.67,5.06,5.06,0,0,1-2.61.66,4.28,4.28,0,0,1-2.81-.94,6.18,6.18,0,0,1,.31,2.07,7.11,7.11,0,0,1-.53,2.76,4.7,4.7,0,0,1-1.44,1.95,3.23,3.23,0,0,1-2,.71,2.26,2.26,0,0,1-1.62-.55,3.43,3.43,0,0,1-.88-1.27,3.86,3.86,0,0,1-1.36,1.46,3,3,0,0,1-1.54.48,2.11,2.11,0,0,1-1.38-.48,3.25,3.25,0,0,1-.89-1.06,2.11,2.11,0,0,1-.3-.84c.16-.88.41-2,.77-3.26s.66-2.38.93-3.26a3.15,3.15,0,0,1,.43-.9.87.87,0,0,1,.75-.33.47.47,0,0,1,.48.29,18,18,0,0,0-1.27,3.47,29.42,29.42,0,0,0-.87,3.85c.24,1,.73,1.49,1.47,1.49a2.33,2.33,0,0,0,1.54-.71A4.72,4.72,0,0,0,148.08,23c.12-.51.29-1.23.49-2.16s.36-1.73.49-2.42a1.41,1.41,0,0,1,.83.17.66.66,0,0,1,.23.57,10,10,0,0,1-.41,1.95c-.24.89-.39,1.48-.43,1.75a9,9,0,0,0-.22,1.77,2.32,2.32,0,0,0,.55.89,1.43,1.43,0,0,0,1.11.48,2,2,0,0,0,1.28-.51A3.86,3.86,0,0,0,153.06,24a6.51,6.51,0,0,0,.42-2.45,6.45,6.45,0,0,0-.23-1.86,9.65,9.65,0,0,0-.61-1.48,3.34,3.34,0,0,1-.24-.5,1.49,1.49,0,0,1,.32-.48c.15-.16.27-.24.35-.24s.15.08.26.23a2.66,2.66,0,0,0,.22.27,6.89,6.89,0,0,0,1.38,1.46,3.26,3.26,0,0,0,2,.58A4.74,4.74,0,0,0,159,19a3.82,3.82,0,0,0,1.61-1.39C160.76,17.69,160.82,17.83,160.82,18.05Z" transform="translate(-0.7 -2.28)"/><path d="M159.58,26.49a2.09,2.09,0,0,1-.66-1.67q.36-1.16,1.25-5.11c.29-1.3.47-2.08.53-2.33a1,1,0,0,1,.86-.53q.36,0,.36.24c-.11.4-.26,1-.46,1.91s-.36,1.55-.47,2.05c-.43,2-.73,3.26-.89,3.82a1.13,1.13,0,0,0,.32.85,1.22,1.22,0,0,0,.86.3,4.23,4.23,0,0,0,2.41-.85,10.57,10.57,0,0,0,2.13-2,13.45,13.45,0,0,0,1.38-2,.33.33,0,0,1,.2.16,1.07,1.07,0,0,1,0,.37,1.38,1.38,0,0,1-.24.74,12.69,12.69,0,0,1-2.9,3.29,5.24,5.24,0,0,1-3.22,1.25A2.27,2.27,0,0,1,159.58,26.49Zm2.08-12.87a.87.87,0,0,1-.19-.59,1.35,1.35,0,0,1,.31-.87,1,1,0,0,1,.79-.4.67.67,0,0,1,.57.24.93.93,0,0,1,.18.58,1.31,1.31,0,0,1-.33.87,1,1,0,0,1-.8.4A.66.66,0,0,1,161.66,13.62Z" transform="translate(-0.7 -2.28)"/><path d="M187.38,21.33a.55.55,0,0,1,.1.32A3.82,3.82,0,0,1,186.36,24a11.34,11.34,0,0,1-2.69,2.25,5.49,5.49,0,0,1-2.71,1c-1.3,0-2-.69-2-2.06a10.9,10.9,0,0,1,.3-2.26c.2-.91.47-2,.81-3.22,0,.08.07-.24.26-1a.38.38,0,0,0-.12-.17.27.27,0,0,0-.17-.07c-.16,0-.53.26-1.13.79a17.56,17.56,0,0,0-1.8,1.9,10.1,10.1,0,0,0-1.36,2.06l-.6,3.15a3.75,3.75,0,0,1-.16.62.21.21,0,0,1-.2.12,1.47,1.47,0,0,1-.64-.16c-.23-.1-.35-.24-.35-.42s.32-1.66,1-4.36c.15-.55.57-2.32,1.27-5.33l0-.19a29.28,29.28,0,0,1-7.29,1.82,27.62,27.62,0,0,0-1.4,6.94,2.41,2.41,0,0,0,.34,1.48c-.18,0-.39.08-.65.15a2.77,2.77,0,0,1-.5.09q-.48,0-.48-1.08a33.79,33.79,0,0,1,1.58-7.46c-1.15.06-2,.1-2.61.1a.35.35,0,0,1-.34-.2c.05-.08.14-.24.26-.48a2.21,2.21,0,0,1,.34-.5c1,0,1.92,0,2.69-.1q.88-2.93,1.87-5.9a10.5,10.5,0,0,1,1.8-1.1.61.61,0,0,1,.25.08.18.18,0,0,1,.11.16,2,2,0,0,0-1.18,1.34c-.6,1.73-1.19,3.5-1.75,5.33a26.25,26.25,0,0,0,7.23-1.75,44.65,44.65,0,0,1,2.73-8.28q1.47-3.11,3.51-3.1c1.2,0,1.8.91,1.8,2.74a8.11,8.11,0,0,1-1.91,5.23,14.75,14.75,0,0,1-5.2,3.93l-.19.77c.05-.22-.2.85-.74,3.22l-.2.86a16.88,16.88,0,0,1,1.56-1.8,15.21,15.21,0,0,1,1.82-1.56,2.76,2.76,0,0,1,1.28-.62.8.8,0,0,1,.48.18,2.19,2.19,0,0,1,.41.39.7.7,0,0,1,.17.32c-.32,1-.69,2.26-1.1,3.91a17.79,17.79,0,0,0-.61,3.38,1,1,0,0,0,.3.85,1.3,1.3,0,0,0,.83.23,4,4,0,0,0,2.45-.9,10,10,0,0,0,2-2.05,13.7,13.7,0,0,0,1.3-2.09A.51.51,0,0,1,187.38,21.33ZM179.91,8.17a40.52,40.52,0,0,0-2.29,6.76,11.27,11.27,0,0,0,4-3.37A7.64,7.64,0,0,0,183.09,7a2.86,2.86,0,0,0-.15-1.1.59.59,0,0,0-.57-.32C181.54,5.57,180.72,6.44,179.91,8.17Z" transform="translate(-0.7 -2.28)"/><path d="M186.63,26.49a2.09,2.09,0,0,1-.66-1.67q.36-1.16,1.25-5.11c.29-1.3.46-2.08.53-2.33a1,1,0,0,1,.86-.53q.36,0,.36.24c-.11.4-.27,1-.47,1.91s-.35,1.55-.46,2.05c-.44,2-.73,3.26-.89,3.82a1.13,1.13,0,0,0,.32.85,1.21,1.21,0,0,0,.85.3,4.26,4.26,0,0,0,2.42-.85,10.84,10.84,0,0,0,2.13-2,13.45,13.45,0,0,0,1.38-2,.28.28,0,0,1,.19.16.83.83,0,0,1,.05.37,1.38,1.38,0,0,1-.24.74,12.69,12.69,0,0,1-2.9,3.29,5.26,5.26,0,0,1-3.22,1.25A2.27,2.27,0,0,1,186.63,26.49Zm2.08-12.87a.87.87,0,0,1-.19-.59,1.35,1.35,0,0,1,.31-.87,1,1,0,0,1,.79-.4.65.65,0,0,1,.56.24.93.93,0,0,1,.18.58,1.3,1.3,0,0,1-.32.87,1,1,0,0,1-.8.4A.66.66,0,0,1,188.71,13.62Z" transform="translate(-0.7 -2.28)"/><path d="M205,21.23a1,1,0,0,1,.11.47,4.2,4.2,0,0,1-.92,2.18,9.22,9.22,0,0,1-2.31,2.31,4.87,4.87,0,0,1-2.77,1,1.91,1.91,0,0,1-1.34-.43,1.72,1.72,0,0,1-.46-1.32,11.59,11.59,0,0,1,.67-3.33c.45-1.4.85-2.56,1.22-3.49a.26.26,0,0,0-.19-.14.43.43,0,0,0-.22.07,11.59,11.59,0,0,0-1.41,1.18q-1,.9-1.92,1.92a8.19,8.19,0,0,0-1.27,1.63c-.26.69-.42,1.12-.48,1.31a5.25,5.25,0,0,0-.2.9l-.21,1.08a1.06,1.06,0,0,0-.05.18.31.31,0,0,1-.06.13l-.11,0a3.26,3.26,0,0,1-.56-.05c-.23,0-.35-.08-.35-.14a4.58,4.58,0,0,1,.17-.94q.16-.64.33-1.17c.12-.35.2-.63.27-.82l.21-.67c.47-1.6.78-2.76.95-3.49s.33-1.54.49-2.44c0-.16.13-.24.34-.24a1.41,1.41,0,0,1,.49.11.48.48,0,0,1,.33.3c-.07.29-.18.78-.35,1.46s-.37,1.45-.61,2.28a28.48,28.48,0,0,1,2.89-2.83c1-.85,1.67-1.27,2-1.27a1.08,1.08,0,0,1,.58.24,1.05,1.05,0,0,1,.41.46c-.52,1.37-1,2.87-1.47,4.5a15.39,15.39,0,0,0-.69,3.2q0,.84,1,.84a4,4,0,0,0,2.86-1.58,12.84,12.84,0,0,0,2.32-3.6A.36.36,0,0,1,205,21.23Z" transform="translate(-0.7 -2.28)"/><path fill="#f00" stroke="#f00" d="M210.35,26.69c.5-.05.79-.24.87-.58q1.65-6.48,2.42-9.9a28,28,0,0,0,.77-4.35q0-.46-.21-.6a1.58,1.58,0,0,0-.82-.15,12.23,12.23,0,0,0-2.26.17c0-.69.19-1,.56-1,1.37,0,2.38,0,3-.07s1.3-.1,2-.19c.08,0,.14.12.18.28a1.39,1.39,0,0,1,0,.44,2.59,2.59,0,0,0-.75.2.64.64,0,0,0-.4.42q-.7,2.6-2.07,9.5c-.16.74-.32,1.54-.49,2.4s-.36,1.76-.56,2.69a1.32,1.32,0,0,1-.52.84,2,2,0,0,1-1.07.24l-.45,0Z" transform="translate(-0.7 -2.28)"/><path fill="#f00" stroke="#f00" d="M234.56,10.12a.6.6,0,0,1,.2.25l-.33.73a3.79,3.79,0,0,0-.34,1.05l-.24,0a1.31,1.31,0,0,0-.24-.53.9.9,0,0,0-.53-.24,23.89,23.89,0,0,0-2.8-.25c-1.41-.07-2.54-.11-3.39-.11a2.45,2.45,0,0,0-.78.08.58.58,0,0,0-.3.33q-.76,2.07-1.89,6h2.64c1.58,0,2.74,0,3.48-.07a11.67,11.67,0,0,0,2.18-.36l.14.12a2.14,2.14,0,0,0-.16.47,4.47,4.47,0,0,0-.12.68.33.33,0,0,1-.36.27h-8.09a29.89,29.89,0,0,0-1.2,6.12,1.19,1.19,0,0,0,.62,1.21,6.05,6.05,0,0,0,2.16.27q6,0,8.26-2.11c.06,0,.13.05.19.15a1.86,1.86,0,0,0-.31.87l-.15.81a.78.78,0,0,1-.31.44,1.49,1.49,0,0,1-.6.25c-1.17.24-2.25.41-3.24.52a30.5,30.5,0,0,1-3.07.15,11.38,11.38,0,0,1-3.89-.44A1.46,1.46,0,0,1,221,25.39a13.16,13.16,0,0,1,.37-2.36c.25-1.14.59-2.65,1-4.52h-.6q-.48,0-.48-.24a1,1,0,0,1,.27-.53c.17-.23.33-.34.48-.34h.62l.14-.57c.08-.34.26-1.06.52-2.18s.45-1.94.55-2.5a2.7,2.7,0,0,0,.09-1,.29.29,0,0,0-.27-.12,13.69,13.69,0,0,0-3.86.39l-.1,0a3.18,3.18,0,0,1,.12-.87,1.64,1.64,0,0,1,.27-.66c1.5.11,3,.16,4.56.16l9.52,0A.45.45,0,0,1,234.56,10.12Z" transform="translate(-0.7 -2.28)"/><path fill="#f00" stroke="#f00" 
 d="M248.73,27.79l-.33-.07a1.4,1.4,0,0,0-.17-.61.78.78,0,0,0-.41-.25,9.83,9.83,0,0,0-2.06-.3c-1-.07-2.08-.11-3.32-.11-1.58,0-3,.06-4.39.19a18.66,18.66,0,0,0-3.26.55c-.11,0-.24-.12-.39-.37a1.36,1.36,0,0,1-.21-.63.18.18,0,0,1,0-.14l.17-.06a5.56,5.56,0,0,0,2-.7A5.79,5.79,0,0,0,238.17,23a22.65,22.65,0,0,0,1.63-5.48q.87-4.36,1.35-6.72a1.3,1.3,0,0,1,.18-.45.63.63,0,0,1,.32-.22,7.92,7.92,0,0,1,1.58-.42,12.87,12.87,0,0,1,2-.15c.1,0,.19.11.27.28a2.81,2.81,0,0,1,.17.54q0,.28,0,.33a3.34,3.34,0,0,0-.75-.11c-.33,0-.62,0-.84,0a1.7,1.7,0,0,0-1.21.36,2,2,0,0,0-.52,1c-.24,1.07-.45,2.11-.64,3.1-.41,1.92-.71,3.29-.92,4.1a19.12,19.12,0,0,1-1.56,4.42,5.47,5.47,0,0,1-2.2,2.33c.51,0,1.15-.09,1.94-.17s1.4-.14,1.85-.17c1.31-.14,2.39-.25,3.25-.32s1.64-.11,2.34-.11a6.11,6.11,0,0,1,1.63.15.87.87,0,0,1,.6.54A10.5,10.5,0,0,1,248.73,27.79Z" transform="translate(-0.7 -2.28)"/><path fill="#f00" stroke="#f00" d="M250.65,27a7.7,7.7,0,0,1-1.7-.49,12.07,12.07,0,0,1-.41-1.32l.22-.24a5.58,5.58,0,0,0,1.71,1.2,5.51,5.51,0,0,0,2.13.36,5.74,5.74,0,0,0,2.47-.51,4.91,4.91,0,0,0,2-1.88,13.37,13.37,0,0,0,1.51-3.9l.31-1.3c.54-2.53,1.06-4.6,1.54-6.21a3,3,0,0,1,.79-.7,10.08,10.08,0,0,1,1.05-.53l.22.07a8.67,8.67,0,0,0-1.1,2.63c-.36,1.24-.73,2.76-1.13,4.55l-.36,1.54q-1.72,6.93-7.13,6.93A11.81,11.81,0,0,1,250.65,27Zm.77-9.33a5.52,5.52,0,0,1-.89-2.92,4.3,4.3,0,0,1,.89-2.63,6,6,0,0,1,2.7-1.9,12.32,12.32,0,0,1,4.45-.71,16.29,16.29,0,0,1,2.33.15c.69.09,1.6.25,2.74.45a16.31,16.31,0,0,0,3.09.44,5.42,5.42,0,0,0,2-.35,2.84,2.84,0,0,0,1.4-1.12A3.23,3.23,0,0,1,268.92,11a4.07,4.07,0,0,1-2.57.72,13.59,13.59,0,0,1-1.85-.14c-.72-.1-1.67-.24-2.86-.43s-2.09-.34-2.82-.43a13.78,13.78,0,0,0-1.83-.15,6.22,6.22,0,0,0-2.55.52,4.58,4.58,0,0,0-1.89,1.49,3.67,3.67,0,0,0-.72,2.26,4.08,4.08,0,0,0,.81,2.46,10.81,10.81,0,0,0,2.48,2.3l-.1.12c-.34,0-.6,0-.79,0a4.07,4.07,0,0,0-.65.16A6.29,6.29,0,0,1,251.42,17.71Z" transform="translate(-0.7 -2.28)"/><path fill="#f00" stroke="#f00" d="M266.68,26.76c-.89-.27-1.42-.57-1.58-.89a14.1,14.1,0,0,0,.21-1.57c.07-.66.1-1.17.1-1.52a.82.82,0,0,1,.55-.17,6.12,6.12,0,0,0,.3,2.14,2,2,0,0,0,1,1.11,4.51,4.51,0,0,0,2,.35,6.91,6.91,0,0,0,3.75-.95,3,3,0,0,0,1.5-2.7,3.47,3.47,0,0,0-.53-1.81,10.1,10.1,0,0,0-1.87-2.15l-.64-.6a12.44,12.44,0,0,1-1.84-1.95,3.41,3.41,0,0,1-.59-2,3.91,3.91,0,0,1,.59-2.1,4,4,0,0,1,1.68-1.49,5.58,5.58,0,0,1,2.51-.54,5.36,5.36,0,0,1,2.37.48,2.55,2.55,0,0,1,1.28,1.13,7.83,7.83,0,0,1-.22,1.66c-.15.62-.23,1-.27,1.1a2.08,2.08,0,0,1-.6-.09l.08-.48c0-.29.05-.52.05-.7a2,2,0,0,0-.59-1.6,2.91,2.91,0,0,0-1.84-.49,4.58,4.58,0,0,0-2.8.79,2.5,2.5,0,0,0-1,2.07,2.9,2.9,0,0,0,.62,1.79,16.93,16.93,0,0,0,1.92,1.95l.51.46a13.84,13.84,0,0,1,2.1,2.25,3.63,3.63,0,0,1,.56,2,4,4,0,0,1-1,2.74,6,6,0,0,1-2.5,1.66,8.82,8.82,0,0,1-3,.54A9.48,9.48,0,0,1,266.68,26.76Z" transform="translate(-0.7 -2.28)"/></svg>
